<svg xmlns="http://www.w3.org/2000/svg" viewBox="0 0 512 512" role="img" aria-label="双人小餐桌图标">
  <rect width="512" height="512" rx="112" fill="#dfeee5"/>
  <path d="M138 152c56-44 181-45 236 0 42 34 49 98 25 143-26 49-82 75-143 75s-117-26-143-75c-24-45-17-109 25-143z" fill="#fffdf8" stroke="#3f433c" stroke-width="16" stroke-linecap="round" stroke-linejoin="round"/>
  <path d="M151 239c40 31 171 31 210 0" fill="none" stroke="#9ac9b0" stroke-width="18" stroke-linecap="round"/>
  <circle cx="205" cy="228" r="16" fill="#f0b2a8"/>
  <circle cx="307" cy="228" r="16" fill="#f0b2a8"/>
  <path d="M222 277c18 19 51 19 69 0" fill="none" stroke="#3f433c" stroke-width="14" stroke-linecap="round"/>
  <path d="M152 374c48 29 160 29 208 0" fill="none" stroke="#3f433c" stroke-width="14" stroke-linecap="round"/>
  <path d="M175 118c-10-25 13-47 40-37" fill="none" stroke="#3f433c" stroke-width="14" stroke-linecap="round"/>
  <path d="M337 118c10-25-13-47-40-37" fill="none" stroke="#3f433c" stroke-width="14" stroke-linecap="round"/>
</svg>
